<svg width="244" height="224" viewBox="0 0 244 224" fill="none" xmlns="http://www.w3.org/2000/svg">
<g id="Group 8">
<path id="Star 10" d="M121.307 65.6323L121.803 83.5906C122.226 98.9013 134.538 111.214 149.849 111.636L167.807 112.132L149.849 112.628C134.538 113.051 122.226 125.363 121.803 140.674L121.307 158.632L120.811 140.674C120.389 125.363 108.076 113.051 92.7656 112.628L74.8073 112.132L92.7656 111.636C108.076 111.214 120.389 98.9013 120.811 83.5906L121.307 65.6323Z" fill="url(#paint0_linear_15_797)"/>
<path id="Ellipse 34" d="M205.283 53.7029C207.685 57.1553 207.929 62.0691 205.994 68.2207C204.064 74.3559 200.017 81.5404 194.143 89.3189C182.401 104.867 163.498 122.603 140.208 138.808C116.917 155.013 93.7167 166.572 75.0567 172.178C65.7213 174.982 57.5781 176.28 51.1547 175.956C44.7142 175.632 40.1916 173.695 37.7895 170.243C35.3874 166.791 35.1433 161.877 37.0782 155.725C39.0079 149.59 43.0547 142.406 48.9292 134.627C60.6714 119.079 79.5742 101.343 102.865 85.138C126.155 68.9329 149.355 57.3736 168.015 51.7681C177.351 48.9636 185.494 47.6664 191.917 47.9897C198.358 48.3137 202.881 50.2506 205.283 53.7029Z" stroke="url(#paint1_linear_15_797)" stroke-width="2"/>
</g>
<defs>
<linearGradient id="paint0_linear_15_797" x1="74.8073" y1="65.6323" x2="167.807" y2="158.632" gradientUnits="userSpaceOnUse">
<stop stop-color="#3CAEE0"/>
<stop offset="1" stop-color="#C23DF5"/>
</linearGradient>
<linearGradient id="paint1_linear_15_797" x1="17.726" y1="143.158" x2="119.942" y2="220.354" gradientUnits="userSpaceOnUse">
<stop stop-color="#3CAEE0"/>
<stop offset="1" stop-color="#C23DF5"/>
</linearGradient>
</defs>
</svg>
