<svg width="402" height="177" viewBox="0 0 402 177" fill="none" xmlns="http://www.w3.org/2000/svg">
<path d="M393.277 58.9428C393.695 61.6899 392.905 64.6367 390.857 67.7754C388.805 70.921 385.524 74.2017 381.084 77.559C372.204 84.2727 358.858 91.1648 341.998 97.8254C308.294 111.14 260.754 123.449 207.376 131.575C153.998 139.702 104.95 142.098 68.81 139.416C50.7318 138.074 35.9397 135.466 25.4644 131.699C20.2261 129.815 16.1179 127.659 13.2225 125.267C10.3333 122.88 8.70174 120.302 8.28352 117.554C7.8653 114.807 8.6558 111.861 10.7037 108.722C12.756 105.576 16.0366 102.296 20.477 98.9383C29.3567 92.2246 42.7023 85.3325 59.5623 78.6719C93.267 65.3568 140.806 53.0483 194.184 44.9221C247.562 36.7958 296.61 34.3997 332.751 37.0816C350.829 38.4231 365.621 41.0316 376.096 44.7987C381.334 46.6825 385.443 48.8383 388.338 51.2306C391.227 53.6177 392.859 56.1958 393.277 58.9428Z" stroke="url(#paint0_linear_204_340)" stroke-width="2"/>
<path d="M390.371 43.8741C391.004 46.5797 390.448 49.5795 388.654 52.8698C386.856 56.1672 383.844 59.6961 379.682 63.3927C371.358 70.7848 358.597 78.7066 342.314 86.6743C309.762 102.602 263.34 118.617 210.768 130.921C158.196 143.226 109.488 149.477 73.2495 149.65C55.1217 149.736 40.1702 148.301 29.4307 145.371C24.0604 143.905 19.7951 142.08 16.7203 139.923C13.6521 137.771 11.8226 135.329 11.1893 132.623C10.556 129.918 11.112 126.918 12.9063 123.628C14.7046 120.33 17.7166 116.801 21.8788 113.105C30.2022 105.713 42.9636 97.7909 59.2467 89.8232C91.798 73.8951 138.22 57.881 190.792 45.5762C243.365 33.2714 292.072 27.02 328.311 26.8474C346.439 26.7611 361.39 28.1965 372.13 31.1269C377.5 32.5923 381.765 34.4179 384.84 36.5748C387.908 38.727 389.738 41.1685 390.371 43.8741Z" stroke="white" stroke-width="2"/>
<defs>
<linearGradient id="paint0_linear_204_340" x1="0.54834" y1="73.3898" x2="64.7651" y2="235.943" gradientUnits="userSpaceOnUse">
<stop stop-color="#3CAEE0"/>
<stop offset="1" stop-color="#C23DF5"/>
</linearGradient>
</defs>
</svg>
