<svg width="193" height="193" viewBox="0 0 193 193" fill="none" xmlns="http://www.w3.org/2000/svg">
<path id="Union" fill-rule="evenodd" clip-rule="evenodd" d="M2.94509 70.941C6.22009 58.9025 19.1356 50.1528 38.5018 46.2668C46.2448 44.7131 54.9164 43.9644 64.2163 44.0873C57.9788 55.5989 52.6259 68.8944 48.6839 83.3846C44.742 97.8743 42.6218 112.049 42.1678 125.133C34.0874 120.528 26.9903 115.49 21.1016 110.228C6.37305 97.0662 -0.329907 82.9794 2.94509 70.941ZM42.1056 127.396C12.9911 111.07 -4.06167 89.0779 1.01523 70.4159C6.09214 51.7539 31.936 41.4316 65.3088 42.1053C81.6344 12.9914 103.626 -4.06079 122.288 1.01604C140.95 6.09289 151.272 31.9362 150.599 65.3083C179.713 81.6339 196.765 103.626 191.688 122.288C186.611 140.949 160.768 151.272 127.396 150.598C111.07 179.713 89.0783 196.766 70.4163 191.689C51.7543 186.612 41.432 160.768 42.1056 127.396ZM125.134 150.536C120.529 158.617 115.49 165.714 110.228 171.603C97.0666 186.331 82.9797 193.034 70.9413 189.759C58.9029 186.484 50.1531 173.569 46.2671 154.202C44.7134 146.459 43.9647 137.788 44.0877 128.488C55.599 134.725 68.894 140.078 83.3838 144.02C97.874 147.962 112.049 150.082 125.134 150.536ZM126.235 148.57C113.04 148.2 98.6542 146.102 83.9088 142.09C69.1638 138.079 55.6979 132.6 44.1342 126.235C44.5041 113.04 46.6024 98.6546 50.6137 83.9096C54.6252 69.1641 60.1039 55.6978 66.4697 44.1339C79.6644 44.5038 94.0497 46.6021 108.795 50.6134C123.54 54.6248 137.006 60.1034 148.57 66.4692C148.2 79.6642 146.102 94.05 142.09 108.795C138.079 123.54 132.601 137.006 126.235 148.57ZM128.489 148.616C137.788 148.739 146.459 147.99 154.202 146.437C173.568 142.551 186.483 133.801 189.758 121.763C193.033 109.724 186.33 95.6373 171.602 82.476C165.713 77.2141 158.616 72.1758 150.536 67.5707C150.083 80.6555 147.962 94.8303 144.02 109.32C140.078 123.81 134.726 137.105 128.489 148.616ZM148.617 64.2158C148.739 54.9164 147.991 46.2452 146.437 38.5026C142.551 19.1364 133.801 6.2209 121.763 2.9459C109.724 -0.329098 95.6376 6.37386 82.4763 21.1024C77.2145 26.9908 72.1762 34.0875 67.5712 42.1675C80.6557 42.6215 94.83 44.7417 109.32 48.6835C123.81 52.6255 137.105 57.9784 148.617 64.2158ZM77.0022 63.1573L88.9169 82.3587C93.3551 89.5112 102.609 91.9494 109.995 87.9126L129.825 77.0756L110.623 88.9903C103.471 93.4286 101.033 102.682 105.069 110.069L115.906 129.898L103.992 110.697C99.5535 103.544 90.3 101.106 82.9135 105.143L63.0839 115.98L82.2852 104.065C89.4377 99.6269 91.876 90.3734 87.8392 82.9869L77.0022 63.1573Z" fill="url(#paint0_linear_19_381)"/>
<defs>
<linearGradient id="paint0_linear_19_381" x1="-11" y1="68.0654" x2="203.703" y2="124.638" gradientUnits="userSpaceOnUse">
<stop stop-color="#3CAEE0"/>
<stop offset="1" stop-color="#C23DF5"/>
</linearGradient>
</defs>
</svg>
