<svg width="80" height="80" viewBox="0 0 80 80" fill="none" xmlns="http://www.w3.org/2000/svg">
<path fill-rule="evenodd" clip-rule="evenodd" d="M44.243 35.0074C44.6572 35.0074 44.993 35.3432 44.993 35.7574L44.993 41.4142C44.993 41.8284 44.6572 42.1642 44.243 42.1642C43.8288 42.1642 43.493 41.8284 43.493 41.4142L43.493 37.568L36.288 44.773C35.9951 45.0659 35.5203 45.0659 35.2274 44.773C34.9345 44.4801 34.9345 44.0052 35.2274 43.7123L42.4323 36.5074L38.5861 36.5074C38.1719 36.5074 37.8361 36.1716 37.8361 35.7574C37.8361 35.3432 38.1719 35.0074 38.5861 35.0074L44.243 35.0074Z" fill="white"/>
<rect x="1.10945" y="40" width="55" height="55" rx="27.5" transform="rotate(-45 1.10945 40)" stroke="white"/>
</svg>
