<svg width="40" height="40" viewBox="0 0 40 40" fill="none" xmlns="http://www.w3.org/2000/svg">
<g id="Frame">
<g id="Group">
<path id="Vector" d="M22.3126 26.6953C22.9298 26.8828 23.5157 27.1484 24.0548 27.4688C25.0626 26.1328 26.4766 25.1328 28.086 24.6406C27.6329 24.3359 27.2501 23.9375 26.9532 23.4844H24.0938C24.0391 24.8125 23.3594 25.9844 22.3126 26.6953ZM25.0704 28.1953C25.7735 28.7813 26.3751 29.4922 26.836 30.2813H36.7813C35.5469 26.2266 30.8751 24.3359 27.1719 26.375C26.3594 26.8281 25.6407 27.4531 25.0704 28.1953ZM27.4376 31.5313C27.5938 31.9531 27.711 32.3906 27.7969 32.8438C27.8673 33.2266 27.5704 33.5781 27.1798 33.5781H12.8204C12.4298 33.5781 12.1173 33.2266 12.2188 32.7891C12.3048 32.3516 12.4219 31.9297 12.5704 31.5234H2.42194C2.03132 31.5234 1.71882 31.1719 1.82038 30.7344C2.17194 28.8984 3.15632 27.2813 4.53913 26.1328C5.33601 25.4688 6.27351 24.9531 7.29694 24.6406C5.17976 23.1953 4.89069 20.1797 6.71101 18.3594C7.22663 17.8516 7.87507 17.4688 8.59382 17.2891V8.92969C8.59382 7.63281 9.50788 6.41406 10.7891 6.41406H29.211C30.4923 6.41406 31.4063 7.63281 31.4063 8.92969V17.2891C34.8126 18.1563 35.6173 22.6563 32.7032 24.6484C35.5079 25.5 37.6485 27.8672 38.1876 30.7969C38.2579 31.1797 37.961 31.5313 37.5704 31.5313H27.4376ZM13.1563 30.2813C13.6251 29.4844 14.2188 28.7813 14.9219 28.1953C12.6173 25.1641 8.25007 24.6641 5.32819 27.0938C4.34382 27.9141 3.59382 29.0234 3.21101 30.2813H13.1563ZM15.9454 27.4766C16.4844 27.1484 17.0704 26.8906 17.6876 26.7031C16.6407 25.9844 15.961 24.8125 15.9063 23.4922H13.0469C12.7501 23.9453 12.3673 24.3438 11.9219 24.6484C13.5235 25.1406 14.9376 26.1328 15.9454 27.4766ZM24.2735 29.1484C23.1016 28.1719 21.6016 27.6094 20.0001 27.6094C17.0548 27.6094 14.461 29.5391 13.6094 32.3359H26.3907C26.0157 31.0938 25.2657 29.9766 24.2735 29.1484ZM20.0001 26.1641C21.5704 26.1641 22.8516 24.8906 22.8516 23.3125C22.8516 21.7422 21.5782 20.4609 20.0001 20.4609C18.4219 20.4609 17.1485 21.7344 17.1485 23.3125C17.1485 24.8906 18.4219 26.1641 20.0001 26.1641ZM16.0469 22.2422C16.8594 19.2266 20.6641 18.1797 22.8985 20.4219C23.3985 20.9141 23.7657 21.5469 23.9532 22.2422H26.4141C25.8048 19.7578 27.6016 17.3203 30.1563 17.1719V8.92969C30.1563 8.3125 29.7813 7.66406 29.211 7.66406H10.7891C10.2188 7.66406 9.84382 8.32031 9.84382 8.92969V17.1719C12.3985 17.3203 14.1954 19.7578 13.586 22.2422H16.0469ZM30.3985 24.1094C31.9688 24.1094 33.2501 22.8359 33.2501 21.2578C33.2501 19.6797 31.9766 18.4063 30.3985 18.4063C28.8204 18.4063 27.5469 19.6797 27.5469 21.2578C27.5469 22.8359 28.8204 24.1094 30.3985 24.1094ZM9.60163 24.1094C11.1719 24.1094 12.4532 22.8359 12.4532 21.2578C12.4532 19.6797 11.1798 18.4063 9.60163 18.4063C8.02351 18.4063 6.75007 19.6797 6.75007 21.2578C6.75788 22.8359 8.03132 24.1094 9.60163 24.1094ZM23.9219 15.8828C23.6798 15.6406 23.6798 15.2422 23.9219 15C24.1641 14.7578 24.5626 14.7578 24.8048 15L25.4141 15.6094C25.6563 15.8516 25.6563 16.25 25.4141 16.4922C25.1719 16.7344 24.7735 16.7344 24.5313 16.4922L23.9219 15.8828ZM24.8048 12.2969C24.5626 12.5391 24.1641 12.5391 23.9219 12.2969C23.6798 12.0547 23.6798 11.6563 23.9219 11.4141L24.5079 10.8281C24.7501 10.5859 25.1485 10.5859 25.3907 10.8281C25.6329 11.0703 25.6329 11.4688 25.3907 11.7109L24.8048 12.2969ZM24.8516 14.2813C24.5079 14.2813 24.2266 14 24.2266 13.6563C24.2266 13.3125 24.5079 13.0313 24.8516 13.0313H25.5548C25.8985 13.0313 26.1798 13.3125 26.1798 13.6563C26.1798 14 25.8985 14.2813 25.5548 14.2813H24.8516ZM17.0626 18.125C17.0626 18.4688 16.7813 18.75 16.4376 18.75C16.0938 18.75 15.8126 18.4688 15.8126 18.125V16.3047C14.6251 16.0625 13.8204 14.9062 13.8204 13.6641C13.8204 12.25 14.8594 10.9766 16.2579 10.9766H17.9298L22.1563 8.90625C22.5704 8.70313 23.0548 9.01563 23.0548 9.46094V17.8516C23.0548 18.2891 22.586 18.6484 22.1016 18.3828L17.9219 16.3359H17.0626V18.125ZM16.3829 15.1016H17.4376V12.2266H16.2501C15.1954 12.2266 14.6407 13.8047 15.4376 14.7031C15.6485 14.9453 15.9376 15.0938 16.2501 15.0938H16.3829V15.1016ZM21.8048 10.4609L18.6954 11.9844V15.3359L21.8048 16.8594V10.4609Z" fill="white"/>
</g>
</g>
</svg>
