<svg width="34" height="34" viewBox="0 0 34 34" fill="none" xmlns="http://www.w3.org/2000/svg">
<g id="Huge-icon/education/outline/fountain pen">
<path id="Vector" d="M17 19.8334C18.5648 19.8334 19.8333 18.5648 19.8333 17C19.8333 15.4352 18.5648 14.1667 17 14.1667C15.4352 14.1667 14.1667 15.4352 14.1667 17C14.1667 18.5648 15.4352 19.8334 17 19.8334ZM17 19.8334V31.1667M9.91666 8.50004H24.0833C25.6481 8.50004 26.9167 7.23151 26.9167 5.66671C26.9167 4.1019 25.6481 2.83337 24.0833 2.83337H9.91666C8.35185 2.83337 7.08333 4.1019 7.08333 5.66671C7.08333 7.23151 8.35185 8.50004 9.91666 8.50004ZM9.90529 8.50004H24.0947L26.5229 16.0483C27.2268 17.8258 26.9775 19.8066 25.8508 21.3872L18.3485 30.4953C17.7103 31.3905 16.2897 31.3905 15.6515 30.4953L8.1492 21.3872C7.02252 19.8066 6.77315 17.8258 7.47709 16.0483L9.90529 8.50004Z" stroke="white" stroke-width="1.5"/>
</g>
</svg>
