<svg width="137" height="137" viewBox="0 0 137 137" fill="none" xmlns="http://www.w3.org/2000/svg">
<path d="M57.5338 118.302C58.3956 118.49 59.1038 118.813 59.6581 119.273C60.2101 119.743 60.6585 120.325 61.0033 121.021L60.0029 121.65C59.741 121.04 59.3904 120.551 58.9512 120.185C58.5013 119.816 57.9316 119.557 57.2421 119.407C56.531 119.252 55.9194 119.288 55.4072 119.515C54.895 119.742 54.5766 120.141 54.4521 120.712C54.3557 121.154 54.3793 121.537 54.5229 121.862C54.6642 122.197 54.883 122.487 55.1794 122.732C55.4626 122.986 55.7883 123.226 56.1563 123.453C56.5244 123.679 56.8913 123.912 57.257 124.149C57.6096 124.395 57.927 124.673 58.2093 124.983C58.4916 125.292 58.6951 125.653 58.8199 126.064C58.9339 126.472 58.9287 126.962 58.8041 127.533C58.6725 128.136 58.4143 128.621 58.0294 128.989C57.6445 129.356 57.1742 129.598 56.6185 129.714C56.0605 129.841 55.4583 129.834 54.8119 129.693C54.0901 129.536 53.4796 129.257 52.9805 128.855C52.4706 128.45 52.0788 127.97 51.8051 127.414L52.7894 126.782C53.0448 127.266 53.3538 127.661 53.7161 127.965C54.0785 128.27 54.5344 128.482 55.0839 128.602C55.7303 128.742 56.2803 128.704 56.7339 128.487C57.1876 128.27 57.4732 127.892 57.5907 127.353C57.6823 126.933 57.6594 126.573 57.5218 126.272C57.3735 125.969 57.1512 125.695 56.8548 125.45C56.5585 125.205 56.2316 124.97 55.8743 124.745C55.5039 124.529 55.137 124.297 54.7737 124.049C54.4103 123.8 54.0941 123.517 53.8249 123.199C53.545 122.879 53.345 122.502 53.2249 122.07C53.1024 121.648 53.1058 121.141 53.2351 120.549C53.4442 119.59 53.9361 118.913 54.7108 118.517C55.4724 118.13 56.4133 118.059 57.5338 118.302Z" fill="white"/>
<path d="M43.441 112.971C44.158 113.36 44.7555 113.854 45.2334 114.452C45.7016 115.045 46.0343 115.702 46.2315 116.424C46.4287 117.146 46.4847 117.885 46.3994 118.642C46.2991 119.403 46.054 120.142 45.6641 120.858C45.2742 121.575 44.7895 122.177 44.21 122.666C43.6155 123.158 42.969 123.516 42.2703 123.739C41.562 123.957 40.8314 124.031 40.0787 123.961C39.326 123.891 38.5959 123.664 37.8886 123.28C37.1231 122.864 36.5137 122.358 36.0605 121.761C35.5976 121.158 35.2675 120.496 35.0703 119.774L36.1922 119.442C36.3303 120.019 36.5884 120.548 36.9667 121.029C37.3397 121.52 37.8314 121.932 38.4418 122.263C39.0039 122.568 39.5776 122.748 40.163 122.802C40.7388 122.851 41.3087 122.784 41.8727 122.601C42.4218 122.423 42.9302 122.134 43.398 121.736C43.8509 121.342 44.238 120.849 44.5595 120.259C44.8809 119.668 45.0817 119.068 45.1619 118.459C45.2421 117.85 45.2106 117.262 45.0672 116.695C44.9186 116.138 44.6622 115.629 44.2981 115.167C43.934 114.706 43.4709 114.323 42.9089 114.018C42.2693 113.671 41.6419 113.475 41.0265 113.429C40.4014 113.378 39.8091 113.452 39.2495 113.65L38.9259 112.515C39.6298 112.282 40.3682 112.194 41.1412 112.249C41.9089 112.315 42.6755 112.555 43.441 112.971Z" fill="white"/>
<path d="M30.3214 110.069L29.5867 110.784L27.2767 108.417C26.7531 107.88 26.2184 107.6 25.6726 107.578C25.1189 107.563 24.613 107.779 24.1548 108.225C23.7124 108.655 23.4915 109.147 23.4922 109.701C23.485 110.262 23.7432 110.81 24.2668 111.347L26.5768 113.714L25.8184 114.453L23.5084 112.085C22.9925 111.557 22.6485 111.007 22.4764 110.436C22.2964 109.872 22.28 109.327 22.4272 108.799C22.5667 108.263 22.8538 107.783 23.2883 107.36C23.7386 106.922 24.2337 106.64 24.7736 106.514C25.3058 106.381 25.8515 106.411 26.4106 106.605C26.9619 106.807 27.4955 107.173 28.0114 107.701L30.3214 110.069ZM34.5141 107.072L26.3612 115.009L25.5181 114.145L33.6709 106.208L34.5141 107.072ZM29.7093 102.148L28.9209 108.87L27.8283 108.295L28.6237 101.035L29.7093 102.148Z" fill="white"/>
<path d="M22.6151 91.1221C22.969 91.8449 23.1651 92.5836 23.2031 93.3381C23.2264 94.0876 23.1142 94.8112 22.8666 95.5089C22.6091 96.2115 22.2289 96.8514 21.7258 97.4285C21.208 98.0006 20.5825 98.4658 19.8495 98.824C19.1065 99.187 18.355 99.3947 17.5949 99.447C16.8348 99.4994 16.1031 99.409 15.3997 99.176C14.6963 98.9429 14.0605 98.5848 13.4924 98.1016C12.9243 97.6184 12.4632 97.0153 12.1092 96.2925C11.7552 95.5696 11.5616 94.8359 11.5284 94.0913C11.4904 93.3368 11.5952 92.6106 11.8428 91.9129C12.0903 91.2152 12.4731 90.5802 12.9909 90.0082C13.4988 89.4409 14.1242 88.9758 14.8672 88.6127C15.6003 88.2545 16.3518 88.0468 17.1218 87.9896C17.8818 87.9373 18.6136 88.0277 19.317 88.2607C20.0156 88.4838 20.6539 88.8346 21.2319 89.313C21.8 89.7962 22.2611 90.3993 22.6151 91.1221ZM21.5746 91.6673C21.1963 90.895 20.6785 90.3013 20.021 89.8863C19.3587 89.4613 18.6281 89.2355 17.8292 89.2086C17.0255 89.1718 16.2175 89.3519 15.4052 89.7488C14.8009 90.0441 14.2946 90.4142 13.8864 90.8591C13.4682 91.3088 13.1582 91.8039 12.9564 92.3443C12.7446 92.8896 12.6535 93.4556 12.6831 94.0425C12.7078 94.6194 12.8633 95.2 13.1494 95.7842C13.5227 96.5467 14.0406 97.1404 14.7029 97.5653C15.3505 97.9851 16.0762 98.2135 16.8799 98.2502C17.6788 98.2771 18.4843 98.0921 19.2967 97.6951C19.9009 97.3999 20.4121 97.0274 20.8303 96.5776C21.2484 96.1279 21.5634 95.6304 21.7751 95.0851C21.977 94.5447 22.0631 93.9811 22.0336 93.3942C22.004 92.8074 21.851 92.2317 21.5746 91.6673Z" fill="white"/>
<path d="M18.2055 79.3867L6.96233 81.1361L6.77631 79.9432L18.0195 78.1938L18.2055 79.3867ZM18.0832 78.6023L16.9883 78.7727L16.0225 72.5795L17.1174 72.4091L18.0832 78.6023Z" fill="white"/>
<path d="M17.0599 66.2493L5.74164 65.0809L5.86589 63.88L17.1842 65.0484L17.0599 66.2493ZM17.1416 65.4597L16.0394 65.3459L16.6845 59.1111L17.7867 59.2249L17.1416 65.4597Z" fill="white"/>
<path d="M23.7572 43.1668L14.2203 37.5574L14.8418 36.5031L24.3787 42.1125L23.7572 43.1668ZM12.8721 41.4077L11.917 40.8459L16.6034 32.896L17.5585 33.4578L12.8721 41.4077Z" fill="white"/>
<path d="M34.4354 30.2356C33.8305 30.7666 33.1688 31.1495 32.4501 31.3843C31.7325 31.6035 31.0042 31.6854 30.2652 31.63C29.5189 31.5663 28.8008 31.3677 28.111 31.0343C27.4221 30.6854 26.8082 30.2047 26.2693 29.5921C25.723 28.9713 25.3246 28.3015 25.0739 27.5826C24.8232 26.8637 24.7177 26.1346 24.7576 25.3954C24.7974 24.6562 24.9758 23.9494 25.2929 23.2749C25.61 22.6004 26.0709 21.9976 26.6758 21.4666C27.2806 20.9356 27.9382 20.5564 28.6486 20.3289C29.3672 20.0941 30.096 20.0044 30.8351 20.0599C31.5741 20.1153 32.288 20.3175 32.9768 20.6664C33.6584 21.0071 34.2723 21.4878 34.8185 22.1086C35.3575 22.7212 35.756 23.391 36.0139 24.1182C36.2646 24.8371 36.3701 25.5661 36.3302 26.3053C36.2987 27.0373 36.128 27.7446 35.8183 28.4274C35.5012 29.1019 35.0402 29.7046 34.4354 30.2356ZM33.6349 29.3759C34.2811 28.8085 34.7181 28.1535 34.9458 27.4107C35.1817 26.6608 35.2075 25.8972 35.0231 25.1201C34.8469 24.3358 34.4603 23.6042 33.863 22.9254C33.4188 22.4205 32.9281 22.0297 32.3909 21.753C31.8465 21.4681 31.2867 21.2992 30.7117 21.2466C30.1293 21.1856 29.5587 21.2464 28.9998 21.429C28.4491 21.6044 27.9294 21.9066 27.4405 22.3358C26.8025 22.8959 26.3655 23.5509 26.1296 24.3009C25.8947 25.0354 25.8652 25.7948 26.0414 26.5791C26.2258 27.3562 26.6166 28.0841 27.2138 28.7629C27.6581 29.2678 28.1525 29.6628 28.6969 29.9477C29.2413 30.2327 29.8047 30.4056 30.3871 30.4666C30.9621 30.5193 31.5291 30.4543 32.088 30.2717C32.647 30.0891 33.1626 29.7905 33.6349 29.3759Z" fill="white"/>
<path d="M51.8801 19.7681L48.9793 8.76566L50.1469 8.45851L53.0477 19.461L51.8801 19.7681ZM52.6478 19.5662L52.3653 18.4947L58.843 16.7906L59.1255 17.8621L52.6478 19.5662ZM51.2986 14.4487L51.0246 13.4093L56.9904 11.8398L57.2645 12.8793L51.2986 14.4487ZM50.0295 9.63516L49.747 8.5637L56.1287 6.88489L56.4112 7.95635L50.0295 9.63516Z" fill="white"/>
<path d="M73.4886 17.3084L69.904 11.8237L69.6891 11.8163L65.4 5.64548L66.8545 5.69544L70.3849 10.8308L70.5998 10.8382L74.9266 17.3578L73.4886 17.3084ZM64.8275 17.011L69.5129 11.1649L70.2813 11.9194L66.1994 17.0581L64.8275 17.011ZM70.6705 11.668L69.9027 10.897L73.7635 5.93275L75.1353 5.97988L70.6705 11.668Z" fill="white"/>
<path d="M83.6525 14.6381L83.9973 13.6199L87.1779 14.6946C87.6166 14.8428 88.0384 14.8864 88.4432 14.8254C88.8585 14.7678 89.2202 14.6107 89.5282 14.354C89.8503 14.0905 90.0892 13.7289 90.2448 13.2694C90.4004 12.8099 90.4285 12.383 90.3292 11.9887C90.2439 11.5874 90.0538 11.2381 89.7588 10.9405C89.4777 10.6361 89.1178 10.4097 88.6791 10.2615L85.4985 9.18682L85.838 8.18428L89.097 9.28545C89.7446 9.50427 90.2783 9.83591 90.6982 10.2804C91.1216 10.7144 91.3982 11.221 91.528 11.8002C91.6683 12.3829 91.627 13.0033 91.4042 13.6612C91.1849 14.3086 90.8408 14.8266 90.3716 15.2151C89.9165 15.5966 89.387 15.8367 88.7832 15.9353C88.183 16.0234 87.5591 15.9581 86.9115 15.7393L83.6525 14.6381ZM81.452 18.7127L85.1016 7.93546L86.2454 8.32193L82.5958 19.0992L81.452 18.7127Z" fill="white"/>
<path d="M94.4575 24.1368L100.814 14.6997L101.816 15.3732L95.4595 24.8103L94.4575 24.1368ZM95.1163 24.5797L95.7354 23.6606L100.938 27.1571L100.319 28.0761L95.1163 24.5797Z" fill="white"/>
<path d="M108.058 36.1199C107.553 35.4934 107.199 34.8165 106.994 34.0891C106.806 33.3635 106.755 32.6331 106.842 31.8979C106.938 31.1559 107.167 30.4478 107.53 29.7737C107.908 29.1013 108.415 28.5093 109.051 27.9979C109.695 27.4795 110.382 27.1107 111.112 26.8915C111.842 26.6723 112.575 26.5985 113.313 26.6701C114.051 26.7417 114.75 26.9503 115.411 27.2958C116.072 27.6413 116.655 28.1273 117.16 28.7538C117.666 29.3804 118.017 30.053 118.214 30.7718C118.418 31.4991 118.477 32.2303 118.39 32.9655C118.303 33.7006 118.07 34.4044 117.691 35.0768C117.322 35.7423 116.815 36.3343 116.17 36.8527C115.535 37.3641 114.848 37.7329 114.109 37.9591C113.38 38.1783 112.646 38.2521 111.908 38.1804C111.178 38.1174 110.478 37.9166 109.808 37.578C109.147 37.2325 108.564 36.7465 108.058 36.1199ZM108.953 35.3581C109.492 36.0275 110.129 36.4919 110.862 36.7511C111.602 37.0189 112.365 37.0775 113.15 36.927C113.942 36.785 114.69 36.4306 115.394 35.8639C115.918 35.4423 116.33 34.9694 116.63 34.4452C116.938 33.9141 117.131 33.3628 117.208 32.7912C117.294 32.2126 117.257 31.6405 117.099 31.0748C116.947 30.5177 116.667 29.986 116.258 29.4796C115.726 28.8187 115.089 28.3544 114.349 28.0866C113.625 27.8204 112.866 27.7584 112.074 27.9003C111.289 28.0509 110.544 28.4095 109.84 28.9763C109.316 29.3979 108.9 29.8742 108.592 30.4053C108.283 30.9364 108.086 31.4912 108 32.0697C107.923 32.6413 107.964 33.21 108.123 33.7757C108.281 34.3414 108.558 34.8689 108.953 35.3581Z" fill="white"/>
<path d="M120.046 45.4637L121.006 45.1023L122.174 48.197C122.439 48.8984 122.816 49.3688 123.307 49.608C123.809 49.8434 124.358 49.8484 124.957 49.6231C125.535 49.4055 125.934 49.043 126.155 48.5357C126.386 48.0244 126.37 47.4181 126.105 46.7167L124.937 43.622L125.928 43.249L127.096 46.3437C127.356 47.0348 127.451 47.6765 127.38 48.2688C127.319 48.8572 127.116 49.3638 126.77 49.7888C126.427 50.2241 125.972 50.5486 125.405 50.7623C124.816 50.9837 124.25 51.0439 123.705 50.9428C123.164 50.8519 122.676 50.6056 122.242 50.2037C121.818 49.7979 121.475 49.2495 121.214 48.5583L120.046 45.4637ZM115.005 46.5315L125.653 42.5218L126.08 43.6513L115.431 47.661L115.005 46.5315ZM117.434 52.9683L120.849 47.1229L121.62 48.0875L117.983 54.4228L117.434 52.9683Z" fill="white"/>
<path d="M119.306 60.8652L130.65 59.9882L130.743 61.1919L119.399 62.0689L119.306 60.8652ZM119.367 61.6566L120.472 61.5712L120.989 68.2493L119.884 68.3347L119.367 61.6566ZM124.643 61.2488L125.715 61.1659L126.192 67.3163L125.12 67.3992L124.643 61.2488ZM129.607 60.8651L130.711 60.7797L131.221 67.3588L130.116 67.4442L129.607 60.8651Z" fill="white"/>
<path d="M118.052 82.684L128.556 87.057L128.225 87.8507L118.898 89.2885L119.134 88.7237L124.678 96.3523L124.347 97.146L113.843 92.773L114.314 91.6435L122.864 95.2029L122.695 95.437L118.06 89.0648L118.391 88.2711L126.184 87.0728L126.137 87.3577L117.587 83.7982L118.052 82.684Z" fill="white"/>
<path d="M106.159 102.878C106.706 102.288 107.325 101.839 108.016 101.531C108.707 101.239 109.423 101.083 110.164 101.062C110.913 101.049 111.648 101.173 112.368 101.433C113.089 101.71 113.749 102.125 114.348 102.679C114.955 103.24 115.421 103.865 115.744 104.555C116.067 105.244 116.247 105.958 116.283 106.698C116.32 107.437 116.215 108.159 115.969 108.862C115.723 109.566 115.326 110.213 114.779 110.803C114.232 111.393 113.617 111.838 112.934 112.137C112.243 112.445 111.527 112.609 110.786 112.63C110.046 112.651 109.315 112.523 108.594 112.247C107.881 111.978 107.221 111.563 106.614 111.001C106.014 110.447 105.549 109.822 105.218 109.125C104.895 108.436 104.715 107.722 104.678 106.982C104.635 106.251 104.732 105.53 104.97 104.819C105.216 104.115 105.612 103.468 106.159 102.878ZM107.044 103.651C106.459 104.282 106.092 104.978 105.942 105.74C105.784 106.511 105.837 107.273 106.101 108.027C106.356 108.789 106.816 109.477 107.48 110.091C107.974 110.547 108.502 110.885 109.065 111.105C109.636 111.333 110.21 111.443 110.787 111.437C111.373 111.437 111.934 111.318 112.471 111.079C113.001 110.848 113.487 110.494 113.929 110.017C114.506 109.394 114.874 108.698 115.031 107.928C115.189 107.173 115.141 106.414 114.885 105.652C114.621 104.898 114.158 104.214 113.494 103.601C113 103.144 112.468 102.802 111.897 102.574C111.326 102.347 110.748 102.233 110.162 102.232C109.585 102.239 109.028 102.362 108.491 102.601C107.953 102.84 107.471 103.19 107.044 103.651Z" fill="white"/>
<path d="M98.6457 116.077L99.1434 116.973L96.2501 118.576C95.5943 118.939 95.1838 119.381 95.0186 119.901C94.8587 120.431 94.934 120.975 95.2444 121.534C95.5441 122.074 95.9613 122.417 96.4958 122.562C97.0357 122.716 97.6335 122.612 98.2893 122.249L101.183 120.646L101.696 121.571L98.8032 123.174C98.157 123.532 97.5355 123.719 96.9388 123.734C96.3474 123.759 95.8161 123.632 95.3448 123.351C94.8639 123.075 94.4763 122.672 94.1819 122.142C93.8768 121.593 93.7346 121.041 93.7552 120.488C93.7662 119.94 93.9389 119.422 94.2734 118.934C94.6132 118.456 95.1062 118.038 95.7524 117.68L98.6457 116.077ZM96.8528 111.247L102.376 121.194L101.32 121.779L95.7968 111.832L96.8528 111.247ZM90.8347 114.581L97.1202 117.111L96.2777 118.013L89.4749 115.334L90.8347 114.581Z" fill="white"/>
<path d="M83.283 117.574L85.8036 128.67L84.6261 128.937L82.1055 117.841L83.283 117.574ZM82.5088 117.75L82.7542 118.83L76.2219 120.311L75.9764 119.23L82.5088 117.75ZM83.6811 122.91L83.9193 123.959L77.9031 125.322L77.6649 124.274L83.6811 122.91ZM84.7839 127.765L85.0294 128.845L78.5938 130.304L78.3483 129.223L84.7839 127.765Z" fill="white"/>
</svg>
