<svg width="34" height="34" viewBox="0 0 34 34" fill="none" xmlns="http://www.w3.org/2000/svg">
<path d="M11.3334 25.5H22.6667M11.3334 25.5C11.3334 28.6297 13.8704 31.1667 17 31.1667C20.1297 31.1667 22.6667 28.6297 22.6667 25.5M11.3334 25.5V22.3674C11.3334 21.4412 10.861 20.5932 10.188 19.9568C8.27623 18.1491 7.08337 15.5889 7.08337 12.75C7.08337 7.27322 11.5232 2.83337 17 2.83337C22.4769 2.83337 26.9167 7.27322 26.9167 12.75C26.9167 15.5889 25.7239 18.1491 23.812 19.9568C23.139 20.5932 22.6667 21.4412 22.6667 22.3674V25.5M14.1667 12.75L17 15.5834M17 15.5834L19.8334 12.75M17 15.5834V25.5" stroke="white" stroke-width="1.5" stroke-linecap="round" stroke-linejoin="round"/>
</svg>
