<svg width="40" height="40" viewBox="0 0 40 40" fill="none" xmlns="http://www.w3.org/2000/svg">
<g id="Frame">
<g id="Group">
<path id="Vector" d="M21.875 5H18.125C17.9592 5 17.8003 4.93415 17.6831 4.81694C17.5658 4.69973 17.5 4.54076 17.5 4.375C17.5 4.20924 17.5658 4.05027 17.6831 3.93306C17.8003 3.81585 17.9592 3.75 18.125 3.75H21.875C22.0408 3.75 22.1997 3.81585 22.3169 3.93306C22.4342 4.05027 22.5 4.20924 22.5 4.375C22.5 4.54076 22.4342 4.69973 22.3169 4.81694C22.1997 4.93415 22.0408 5 21.875 5ZM26.875 38.75H13.125C12.2965 38.749 11.5022 38.4194 10.9164 37.8336C10.3306 37.2478 10.001 36.4535 10 35.625V14.375C10 14.2092 10.0658 14.0503 10.1831 13.9331C10.3003 13.8158 10.4592 13.75 10.625 13.75C10.7908 13.75 10.9497 13.8158 11.0669 13.9331C11.1842 14.0503 11.25 14.2092 11.25 14.375V35.625C11.25 36.6587 12.0912 37.5 13.125 37.5H26.875C27.9088 37.5 28.75 36.6587 28.75 35.625V14.375C28.75 14.2092 28.8158 14.0503 28.9331 13.9331C29.0503 13.8158 29.2092 13.75 29.375 13.75C29.5408 13.75 29.6997 13.8158 29.8169 13.9331C29.9342 14.0503 30 14.2092 30 14.375V35.625C30 37.3475 28.5987 38.75 26.875 38.75Z" fill="white"/>
<path id="Vector_2" d="M29.375 18.75C29.2092 18.75 29.0503 18.6842 28.9331 18.5669C28.8158 18.4497 28.75 18.2908 28.75 18.125V4.375C28.75 3.34125 27.9088 2.5 26.875 2.5H13.125C12.0912 2.5 11.25 3.34125 11.25 4.375V18.125C11.25 18.2908 11.1842 18.4497 11.0669 18.5669C10.9497 18.6842 10.7908 18.75 10.625 18.75C10.4592 18.75 10.3003 18.6842 10.1831 18.5669C10.0658 18.4497 10 18.2908 10 18.125V4.375C10 2.6525 11.4012 1.25 13.125 1.25H26.875C28.5987 1.25 30 2.6525 30 4.375V18.125C30 18.2908 29.9342 18.4497 29.8169 18.5669C29.6997 18.6842 29.5408 18.75 29.375 18.75ZM33.125 7.5625C32.78 7.5625 32.5 7.345 32.5 7V6.875C32.5 6.70924 32.5658 6.55027 32.6831 6.43306C32.8003 6.31585 32.9592 6.25 33.125 6.25C33.2908 6.25 33.4497 6.31585 33.5669 6.43306C33.6842 6.55027 33.75 6.70924 33.75 6.875C33.75 7.22 33.47 7.5625 33.125 7.5625ZM33.125 10.0625C32.78 10.0625 32.5 9.845 32.5 9.5V9.375C32.5 9.20924 32.5658 9.05027 32.6831 8.93306C32.8003 8.81585 32.9592 8.75 33.125 8.75C33.2908 8.75 33.4497 8.81585 33.5669 8.93306C33.6842 9.05027 33.75 9.20924 33.75 9.375C33.75 9.72 33.47 10.0625 33.125 10.0625ZM33.125 12.5625C32.78 12.5625 32.5 12.345 32.5 12V11.875C32.5 11.7092 32.5658 11.5503 32.6831 11.4331C32.8003 11.3158 32.9592 11.25 33.125 11.25C33.2908 11.25 33.4497 11.3158 33.5669 11.4331C33.6842 11.5503 33.75 11.7092 33.75 11.875C33.75 12.22 33.47 12.5625 33.125 12.5625ZM6.875 28.6875C6.53 28.6875 6.25 28.47 6.25 28.125V28C6.25 27.8342 6.31585 27.6753 6.43306 27.5581C6.55027 27.4408 6.70924 27.375 6.875 27.375C7.04076 27.375 7.19973 27.4408 7.31694 27.5581C7.43415 27.6753 7.5 27.8342 7.5 28C7.5 28.345 7.22 28.6875 6.875 28.6875ZM6.875 31.1875C6.53 31.1875 6.25 30.97 6.25 30.625V30.5C6.25 30.3342 6.31585 30.1753 6.43306 30.0581C6.55027 29.9408 6.70924 29.875 6.875 29.875C7.04076 29.875 7.19973 29.9408 7.31694 30.0581C7.43415 30.1753 7.5 30.3342 7.5 30.5C7.5 30.845 7.22 31.1875 6.875 31.1875ZM6.875 33.6875C6.53 33.6875 6.25 33.47 6.25 33.125V33C6.25 32.8342 6.31585 32.6753 6.43306 32.5581C6.55027 32.4408 6.70924 32.375 6.875 32.375C7.04076 32.375 7.19973 32.4408 7.31694 32.5581C7.43415 32.6753 7.5 32.8342 7.5 33C7.5 33.345 7.22 33.6875 6.875 33.6875Z" fill="white"/>
<path id="Vector_3" d="M31.0512 33.75C30.958 33.75 30.866 33.7292 30.7818 33.689C30.6977 33.6489 30.6236 33.5904 30.565 33.5179C30.5064 33.4454 30.4647 33.3607 30.4431 33.27C30.4215 33.1793 30.4204 33.0849 30.44 32.9938L30.8525 31.0812C30.8771 30.9664 30.9337 30.8608 31.0158 30.7768C31.0978 30.6927 31.202 30.6336 31.3162 30.6063C31.9194 30.4584 32.4959 30.2176 33.025 29.8925C33.1248 29.8316 33.2396 29.7999 33.3565 29.801C33.4734 29.8021 33.5876 29.836 33.6862 29.8988L34.9237 30.69L35.69 29.9175L34.8988 28.69C34.8352 28.5913 34.8007 28.4767 34.7992 28.3594C34.7976 28.242 34.8291 28.1266 34.89 28.0262C35.2152 27.4973 35.4556 26.9208 35.6025 26.3175C35.63 26.2036 35.6888 26.0997 35.7723 26.0175C35.8558 25.9353 35.9607 25.8782 36.075 25.8525L37.5 25.5363V24.465L36.0763 24.1488C35.9619 24.1231 35.8571 24.0659 35.7736 23.9837C35.6901 23.9016 35.6312 23.7976 35.6037 23.6838C35.4563 23.0807 35.2159 22.5042 34.8913 21.975C34.8299 21.8751 34.798 21.7599 34.7993 21.6427C34.8006 21.5254 34.8351 21.411 34.8988 21.3125L35.6912 20.0738L34.9262 19.3087L33.6875 20.1012C33.589 20.1643 33.4747 20.1983 33.3578 20.1994C33.2408 20.2005 33.1259 20.1687 33.0262 20.1075C32.4969 19.7829 31.9205 19.5421 31.3175 19.3938C31.2033 19.3664 31.0991 19.3073 31.017 19.2232C30.935 19.1392 30.8784 19.0336 30.8538 18.9188L30.5463 17.5H30C29.8342 17.5 29.6753 17.4342 29.5581 17.3169C29.4408 17.1997 29.375 17.0408 29.375 16.875C29.375 16.7092 29.4408 16.5503 29.5581 16.4331C29.6753 16.3158 29.8342 16.25 30 16.25H31.05C31.1928 16.2502 31.3312 16.2994 31.4422 16.3892C31.5531 16.479 31.63 16.6042 31.66 16.7438L31.9937 18.285C32.4512 18.4238 32.9 18.6113 33.3325 18.845L34.675 17.9862C34.7951 17.9095 34.9377 17.8761 35.0793 17.8916C35.221 17.9071 35.3531 17.9704 35.4538 18.0712L36.93 19.5463C37.0306 19.6471 37.0938 19.7793 37.109 19.9209C37.1242 20.0625 37.0906 20.2051 37.0138 20.325L36.155 21.6675C36.3887 22.1012 36.5762 22.55 36.715 23.0087L38.2588 23.3512C38.5463 23.415 38.75 23.67 38.75 23.9625V26.0375C38.7499 26.1798 38.7014 26.3177 38.6123 26.4287C38.5232 26.5396 38.3989 26.6168 38.26 26.6475L36.7162 26.99C36.5752 27.4544 36.3875 27.9033 36.1562 28.33L37.0138 29.66C37.0914 29.7795 37.1257 29.922 37.1109 30.0637C37.0961 30.2055 37.0331 30.3379 36.9325 30.4387L35.4562 31.9263C35.3555 32.0274 35.2233 32.091 35.0814 32.1067C34.9396 32.1224 34.7966 32.0892 34.6762 32.0125L33.3337 31.1538C32.9073 31.3846 32.4588 31.5722 31.995 31.7138L31.6613 33.255C31.6313 33.3947 31.5545 33.52 31.4435 33.61C31.3326 33.7001 31.1941 33.7495 31.0512 33.75Z" fill="white"/>
<path id="Vector_4" d="M31.7388 28.2225C31.605 28.2223 31.4747 28.1791 31.3673 28.0993C31.2598 28.0195 31.1808 27.9073 31.1419 27.7792C31.103 27.6511 31.1062 27.5139 31.1511 27.3878C31.196 27.2618 31.2802 27.1534 31.3913 27.0787C31.8711 26.7554 32.224 26.2759 32.39 25.7217C32.556 25.1676 32.5249 24.573 32.302 24.0392C32.0791 23.5053 31.6781 23.0652 31.1672 22.7937C30.6564 22.5222 30.0673 22.4361 29.5001 22.55C29.4196 22.5665 29.3367 22.567 29.2561 22.5514C29.1755 22.5359 29.0987 22.5046 29.0302 22.4594C28.9616 22.4142 28.9027 22.356 28.8567 22.288C28.8106 22.22 28.7785 22.1436 28.762 22.0631C28.7455 21.9827 28.745 21.8998 28.7605 21.8192C28.776 21.7385 28.8073 21.6618 28.8525 21.5932C28.8977 21.5247 28.956 21.4657 29.024 21.4197C29.092 21.3737 29.1684 21.3415 29.2488 21.325C29.7937 21.2145 30.3563 21.2264 30.8961 21.3598C31.4358 21.4932 31.9392 21.7448 32.3699 22.0964C32.8005 22.448 33.1477 22.8909 33.3864 23.393C33.6251 23.8952 33.7493 24.444 33.7501 25C33.7502 25.6162 33.5985 26.2228 33.3083 26.7664C33.0181 27.3099 32.5984 27.7736 32.0863 28.1162C31.9836 28.1854 31.8626 28.2224 31.7388 28.2225ZM10.0001 18.75C9.19437 18.7511 8.40975 18.4925 7.76251 18.0127C7.11527 17.5328 6.63985 16.8572 6.40671 16.086C6.17357 15.3147 6.19511 14.4889 6.46815 13.7309C6.74119 12.9728 7.2512 12.3229 7.92258 11.8775C8.06049 11.7914 8.22653 11.7624 8.38546 11.7967C8.54439 11.831 8.68369 11.9259 8.7738 12.0613C8.86391 12.1966 8.89774 12.3617 8.86811 12.5216C8.83847 12.6814 8.74771 12.8235 8.61508 12.9175C8.13534 13.2395 7.78183 13.7177 7.61454 14.2707C7.44726 14.8238 7.47651 15.4177 7.69733 15.9516C7.91815 16.4856 8.31693 16.9267 8.82599 17.2C9.33505 17.4734 9.92301 17.5621 10.4901 17.4512C10.6526 17.4192 10.8213 17.4527 10.9592 17.5445C11.0971 17.6363 11.1932 17.7789 11.2263 17.9412C11.2425 18.0217 11.2427 18.1045 11.2268 18.1851C11.211 18.2656 11.1794 18.3422 11.1339 18.4104C11.0883 18.4787 11.0298 18.5373 10.9616 18.5829C10.8934 18.6286 10.8168 18.6603 10.7363 18.6762C10.494 18.7256 10.2474 18.7503 10.0001 18.75Z" fill="white"/>
<path id="Vector_5" d="M10 23.75H8.95C8.80722 23.7498 8.66883 23.7006 8.55784 23.6108C8.44686 23.521 8.36998 23.3959 8.34 23.2563L8.00625 21.715C7.54235 21.5737 7.09385 21.3861 6.6675 21.155L5.325 22.0138C5.20495 22.0905 5.06229 22.1239 4.92066 22.1084C4.77903 22.093 4.64693 22.0296 4.54625 21.9288L3.07 20.4538C2.96939 20.3529 2.90624 20.2208 2.89101 20.0791C2.87578 19.9375 2.90938 19.7949 2.98625 19.675L3.845 18.3325C3.61391 17.9053 3.4263 17.456 3.285 16.9913L1.74125 16.6488C1.60201 16.618 1.47743 16.5407 1.38811 16.4296C1.29878 16.3184 1.25006 16.1801 1.25 16.0375V13.9625C1.25006 13.8203 1.29864 13.6823 1.38774 13.5714C1.47683 13.4604 1.6011 13.3832 1.74 13.3525L3.28375 13.01C3.4225 12.5513 3.61 12.1025 3.84375 11.67L2.9875 10.3388C2.90986 10.2193 2.87557 10.0768 2.89036 9.93502C2.90515 9.79328 2.96812 9.66091 3.06875 9.56002L4.545 8.07252C4.64536 7.9708 4.77767 7.90671 4.9197 7.891C5.06173 7.8753 5.20484 7.90893 5.325 7.98627L6.6675 8.84502C7.09395 8.61416 7.54244 8.42656 8.00625 8.28502L8.34 6.74377C8.35514 6.66145 8.38666 6.58301 8.43268 6.51311C8.47871 6.4432 8.53831 6.38325 8.60795 6.33682C8.67758 6.29038 8.75584 6.25841 8.83806 6.24279C8.92029 6.22717 9.00482 6.22823 9.08663 6.2459C9.16844 6.26356 9.24587 6.29749 9.31432 6.34565C9.38278 6.39381 9.44086 6.45523 9.48513 6.52626C9.52939 6.59729 9.55894 6.67649 9.57202 6.75916C9.58509 6.84183 9.58143 6.92629 9.56125 7.00752L9.14875 8.92002C9.12414 9.03488 9.06754 9.14044 8.98548 9.22449C8.90341 9.30855 8.79924 9.36766 8.685 9.39502C8.08154 9.54312 7.50468 9.7839 6.975 10.1088C6.87522 10.1697 6.76037 10.2014 6.64348 10.2003C6.52659 10.1992 6.41236 10.1653 6.31375 10.1025L5.07625 9.31127L4.30875 10.0838L5.1 11.3113C5.16408 11.4098 5.19891 11.5244 5.20046 11.6419C5.20201 11.7594 5.17021 11.8749 5.10875 11.975C4.78355 12.5039 4.54314 13.0805 4.39625 13.6838C4.36876 13.7977 4.30992 13.9016 4.22642 13.9838C4.14291 14.0659 4.03807 14.1231 3.92375 14.1488L2.5 14.4638V15.535L3.92375 15.8513C4.03807 15.8769 4.14291 15.9341 4.22642 16.0163C4.30992 16.0985 4.36876 16.2024 4.39625 16.3163C4.5375 16.9063 4.77875 17.4813 5.10875 18.025C5.23375 18.2288 5.23125 18.4863 5.10125 18.6875L4.30875 19.925L5.07375 20.69L6.3125 19.8975C6.41121 19.835 6.52541 19.8013 6.64223 19.8002C6.75906 19.7991 6.87388 19.8306 6.97375 19.8913C7.51875 20.2225 8.09375 20.4625 8.6825 20.605C8.79674 20.6324 8.90091 20.6915 8.98298 20.7755C9.06504 20.8596 9.12164 20.9652 9.14625 21.08L9.45375 22.5H10C10.1658 22.5 10.3247 22.5659 10.4419 22.6831C10.5592 22.8003 10.625 22.9593 10.625 23.125C10.625 23.2908 10.5592 23.4497 10.4419 23.567C10.3247 23.6842 10.1658 23.75 10 23.75ZM19.375 23.125C19.28 23.1252 19.1862 23.1037 19.1007 23.0622C19.0153 23.0206 18.9405 22.9601 18.882 22.8852C18.8235 22.8103 18.7829 22.7231 18.7633 22.6301C18.7436 22.5371 18.7455 22.4409 18.7688 22.3488L20.0187 17.3488C20.038 17.2688 20.073 17.1935 20.1217 17.1272C20.1704 17.0609 20.2317 17.005 20.3022 16.9626C20.3727 16.9203 20.4509 16.8924 20.5323 16.8806C20.6137 16.8688 20.6966 16.8732 20.7763 16.8938C20.8559 16.9135 20.9309 16.9488 20.997 16.9976C21.063 17.0463 21.1187 17.1077 21.161 17.1781C21.2033 17.2484 21.2313 17.3265 21.2433 17.4077C21.2554 17.4889 21.2513 17.5716 21.2313 17.6513L19.9812 22.6513C19.9479 22.7868 19.87 22.9071 19.7601 22.993C19.6501 23.0789 19.5145 23.1254 19.375 23.125ZM23.125 23.125C23.0015 23.125 22.8807 23.0884 22.778 23.0198C22.6753 22.9512 22.5952 22.8537 22.5479 22.7396C22.5005 22.6255 22.488 22.4999 22.512 22.3788C22.536 22.2576 22.5953 22.1462 22.6825 22.0588L24.7412 20L22.6838 17.9425C22.5699 17.8246 22.5069 17.6668 22.5083 17.5029C22.5098 17.339 22.5755 17.1823 22.6914 17.0664C22.8072 16.9505 22.964 16.8848 23.1279 16.8833C23.2917 16.8819 23.4496 16.9449 23.5675 17.0588L26.0675 19.5588C26.1847 19.676 26.2505 19.8349 26.2505 20.0006C26.2505 20.1664 26.1847 20.3253 26.0675 20.4425L23.5675 22.9425C23.4499 23.0594 23.2908 23.125 23.125 23.125ZM16.875 23.125C16.7092 23.125 16.5501 23.0594 16.4325 22.9425L13.9325 20.4425C13.8153 20.3253 13.7495 20.1664 13.7495 20.0006C13.7495 19.8349 13.8153 19.676 13.9325 19.5588L16.4325 17.0588C16.5504 16.9449 16.7083 16.8819 16.8721 16.8833C17.036 16.8848 17.1928 16.9505 17.3086 17.0664C17.4245 17.1823 17.4902 17.339 17.4917 17.5029C17.4931 17.6668 17.4301 17.8246 17.3162 17.9425L15.2587 20L17.3162 22.0575C17.4038 22.1449 17.4635 22.2562 17.4877 22.3775C17.512 22.4987 17.4997 22.6245 17.4525 22.7388C17.4052 22.8531 17.3251 22.9508 17.2223 23.0195C17.1196 23.0883 16.9987 23.125 16.875 23.125Z" fill="white"/>
</g>
</g>
</svg>
