<svg width="136" height="46" viewBox="0 0 136 46" fill="none" xmlns="http://www.w3.org/2000/svg">
<path id="ONE EXCELLENT" d="M62.6388 45.0377C59.46 45.0377 16.7852 44.4653 14.0832 43.3203C11.421 42.1754 9.07669 40.5806 7.05024 38.5361C5.02378 36.4915 3.45427 34.1198 2.3417 31.421C1.22913 28.6814 0.672852 25.7372 0.672852 22.5886C0.672852 19.3991 1.22913 16.455 2.3417 13.7562C3.45427 11.0574 5.00391 8.70613 6.99063 6.70247C8.97736 4.65792 11.3018 3.08362 13.964 1.97957C16.666 0.83462 59.3408 0.262146 62.5196 0.262146C65.6586 0.262146 119.294 0.83462 121.956 1.97957C124.658 3.08362 127.002 4.65792 128.989 6.70247C131.015 8.70613 132.585 11.0778 133.697 13.8175C134.81 16.5163 135.366 19.4604 135.366 22.6499C135.366 25.7985 134.81 28.7427 133.697 31.4824C132.585 34.1812 131.035 36.5529 129.048 38.5974C127.062 40.6011 124.717 42.1754 122.015 43.3203C119.353 44.4653 65.7381 45.0377 62.6388 45.0377ZM62.5196 36.2666C65.0228 36.2666 117.943 35.6941 119.81 34.5492C121.717 33.4043 123.188 31.8095 124.221 29.765C125.254 27.6795 125.77 25.2874 125.77 22.5886C125.77 20.5441 125.472 18.704 124.876 17.0683C124.28 15.3918 123.426 13.9606 122.313 12.7748C121.201 11.548 119.87 10.628 118.32 10.0146C116.81 9.36038 64.3871 9.03325 62.5196 9.03325C60.0163 9.03325 18.0766 9.60573 16.1693 10.7507C14.3018 11.8547 12.8515 13.429 11.8184 15.4736C10.7853 17.4772 10.2687 19.8489 10.2687 22.5886C10.2687 24.6331 10.5667 26.4937 11.1628 28.1702C11.7588 29.8467 12.5932 31.2984 13.666 32.5251C14.7786 33.7109 16.1097 34.631 17.6593 35.2852C19.209 35.9395 60.652 36.2666 62.5196 36.2666Z" fill="url(#paint0_linear_31_688)"/>
<defs>
<linearGradient id="paint0_linear_31_688" x1="0.672852" y1="0.262146" x2="27.4796" y2="80.902" gradientUnits="userSpaceOnUse">
<stop stop-color="#3CAEE0"/>
<stop offset="1" stop-color="#C23DF5"/>
</linearGradient>
</defs>
</svg>
