<svg width="84" height="43" viewBox="0 0 84 43" fill="none" xmlns="http://www.w3.org/2000/svg">
<path id="ONE EXCELLENT" d="M42.1193 43C38.9389 43 16.1202 42.4502 13.4169 41.3507C10.7534 40.2511 8.40795 38.7196 6.3805 36.7562C4.35305 34.7927 2.78277 32.5151 1.66966 29.9233C0.556555 27.2922 0 24.4648 0 21.4411C0 18.3781 0.556555 15.5507 1.66966 12.9589C2.78277 10.3671 4.33318 8.10913 6.32087 6.18493C8.30857 4.22146 10.6342 2.70959 13.2977 1.64932C16.0009 0.549772 38.8197 0 42 0C45.1406 0 67.9195 0.549772 70.5831 1.64932C73.2863 2.70959 75.6318 4.22146 77.6195 6.18493C79.6469 8.10913 81.2172 10.3868 82.3303 13.0178C83.4434 15.6096 84 18.437 84 21.5C84 24.5237 83.4434 27.3511 82.3303 29.9822C81.2172 32.574 79.6668 34.8516 77.6791 36.8151C75.6914 38.7393 73.346 40.2511 70.6427 41.3507C67.9792 42.4502 45.2201 43 42.1193 43ZM42 34.5767C44.5045 34.5767 66.5679 34.0269 68.4363 32.9274C70.3445 31.8279 71.8154 30.2963 72.849 28.3329C73.8826 26.3301 74.3994 24.0329 74.3994 21.4411C74.3994 19.4776 74.1013 17.7105 73.505 16.1397C72.9087 14.5297 72.0539 13.1553 70.9408 12.0164C69.8277 10.8384 68.496 9.9548 66.9456 9.36576C65.4349 8.73744 43.8684 8.42329 42 8.42329C39.4955 8.42329 17.4122 8.97306 15.504 10.0726C13.6356 11.1329 12.1846 12.6448 11.151 14.6082C10.1174 16.5324 9.60057 18.81 9.60057 21.4411C9.60057 23.4046 9.89872 25.1913 10.495 26.8014C11.0913 28.4114 11.9262 29.8055 12.9995 30.9836C14.1126 32.1224 15.4444 33.0059 16.9948 33.6342C18.5452 34.2626 40.1316 34.5767 42 34.5767Z" fill="white"/>
</svg>
