<svg width="34" height="34" viewBox="0 0 34 34" fill="none" xmlns="http://www.w3.org/2000/svg">
<path fill-rule="evenodd" clip-rule="evenodd" d="M3.89587 16.2917C3.89587 23.1377 9.44568 28.6875 16.2917 28.6875C23.1377 28.6875 28.6875 23.1377 28.6875 16.2917C28.6875 9.44568 23.1377 3.89587 16.2917 3.89587C9.44568 3.89587 3.89587 9.44568 3.89587 16.2917ZM16.2917 30.8125C8.27207 30.8125 1.77087 24.3113 1.77087 16.2917C1.77087 8.27207 8.27207 1.77087 16.2917 1.77087C24.3113 1.77087 30.8125 8.27207 30.8125 16.2917C30.8125 19.9191 29.4825 23.2358 27.2834 25.7808L31.918 30.4154C32.3329 30.8303 32.3329 31.5031 31.918 31.918C31.5031 32.3329 30.8303 32.3329 30.4154 31.918L25.7808 27.2834C23.2358 29.4825 19.9191 30.8125 16.2917 30.8125Z" fill="white"/>
</svg>
