<svg width="952" height="192" viewBox="0 0 952 192" fill="none" xmlns="http://www.w3.org/2000/svg">
<g clip-path="url(#clip0_473_450)">
<path fill-rule="evenodd" clip-rule="evenodd" d="M0.439881 -0.160034H102.48C102.6 -0.160034 102.71 -0.110034 102.78 0.0099659L115.06 14.41C115.22 14.6 115.52 14.59 115.67 14.38L125.73 0.0299659C125.81 -0.0800341 125.92 -0.140034 126.05 -0.140034H230.35C230.66 -0.140034 230.84 0.189965 230.68 0.449965L179.18 82.31C178.97 82.64 178.46 82.49 178.46 82.1V44.34C178.46 44.12 178.28 43.95 178.07 43.95H148.7C148.56 43.95 148.44 44.02 148.37 44.13L114.88 97.15C114.72 97.39 114.37 97.39 114.22 97.15L80.7299 44.13C80.6599 44.02 80.5299 43.95 80.3999 43.95H51.5999C51.3799 43.95 51.2099 44.13 51.2099 44.34V82.16C51.2099 82.55 50.6899 82.69 50.4899 82.36L0.109883 0.429965C-0.0501169 0.169966 0.139881 -0.160034 0.439881 -0.160034ZM72.6799 126.93L113.96 190.48C114.63 191.51 116.14 191.51 116.81 190.47L158.09 126.99C158.26 126.72 158.36 126.4 158.36 126.07V78.44C158.36 77.5 157.6 76.74 156.66 76.74H150.28C149.68 76.74 149.12 77.06 148.82 77.58L116.85 132.47C116.2 133.59 114.57 133.59 113.92 132.47L81.9499 77.58C81.6499 77.06 81.0899 76.74 80.4899 76.74H74.1099C73.1699 76.74 72.4099 77.5 72.4099 78.44V126.01C72.4099 126.33 72.4999 126.66 72.6799 126.93ZM246.91 46.7V150.93H274.44V91.37L272.21 77.97H273.7L293.8 127.11H324.32L344.42 77.97H345.91L343.68 91.37V150.93H371.23V46.7H332.52L310.93 100.3H307.21L285.62 46.7H246.91ZM384.64 112.21C384.64 123.43 388.76 133.06 397 141.1C405.24 149.14 415.26 153.16 427.07 153.17C441.66 153.17 452.88 148.45 460.72 139.02C464.29 135.05 466.97 130.33 468.76 124.87H441.96C441.16 126.56 440.17 127.95 438.98 129.04C436.3 131.72 432.33 133.06 427.07 133.06C422.61 133.06 418.95 131.65 416.13 128.82C413.31 125.99 411.49 121.94 410.7 116.68H469.52V112.21C469.52 100.99 465.45 91.36 457.31 83.32C449.17 75.28 439.09 71.26 427.08 71.26C415.26 71.26 405.24 75.28 397 83.32C388.76 91.36 384.64 100.99 384.64 112.21ZM442.71 104.02H411.44C412.34 100.45 414.17 97.45 416.94 95.01C419.72 92.58 423.1 91.36 427.07 91.36C431.04 91.36 434.42 92.58 437.2 95.01C439.98 97.45 441.82 100.45 442.71 104.02ZM488.419 139.16C481.769 131.81 478.439 122.33 478.439 110.72C478.439 99.1 481.759 89.63 488.419 82.28C495.069 74.93 503.159 71.26 512.689 71.26C519.539 71.26 525.439 73.25 530.409 77.22C532.689 79.01 534.479 80.99 535.769 83.18H537.259V73.5H562.569V179.22H488.859V159.12H537.249V139.02H535.759C534.369 141.2 532.579 143.09 530.399 144.68C525.539 148.35 519.629 150.19 512.679 150.19C503.159 150.18 495.069 146.51 488.419 139.16ZM508.969 97.62C505.989 100.8 504.499 105.17 504.499 110.72C504.499 116.28 505.989 120.65 508.969 123.82C511.949 127 515.919 128.59 520.879 128.59C525.839 128.59 529.819 127 532.789 123.82C535.769 120.64 537.259 116.28 537.259 110.72C537.259 105.16 535.769 100.79 532.789 97.62C529.809 94.44 525.839 92.85 520.879 92.85C515.919 92.85 511.949 94.44 508.969 97.62ZM574.479 112.21C574.479 124.52 577.81 134.43 584.46 141.92C591.109 149.41 599.199 153.16 608.729 153.15C614.979 153.15 620.79 151.07 626.15 146.9C628.53 145.02 630.419 142.88 631.81 140.5H633.299V150.93H658.609V73.5H633.299V83.91H631.81C630.32 81.63 628.43 79.55 626.15 77.66C620.69 73.4 614.88 71.26 608.729 71.26C599.199 71.26 591.109 75.01 584.46 82.5C577.8 90 574.479 99.9 574.479 112.21ZM600.539 112.21C600.539 106.06 602.03 101.3 605.01 97.92C607.99 94.54 611.959 92.85 616.919 92.86C621.88 92.86 625.849 94.55 628.83 97.92C631.81 101.29 633.299 106.06 633.299 112.21C633.299 118.36 631.81 123.13 628.83 126.5C625.849 129.87 621.88 131.56 616.919 131.56C611.959 131.56 607.99 129.88 605.01 126.5C602.03 123.13 600.539 118.37 600.539 112.21ZM669.04 125.61H694.35C694.75 127.1 695.59 128.49 696.88 129.78C699.56 132.46 703.43 133.8 708.49 133.8C715.44 133.8 718.91 132.06 718.91 128.59C718.91 127 717.92 125.74 715.93 124.79C713.94 123.85 710.97 122.88 707 121.89C703.72 121.1 701.59 120.6 700.6 120.4C699.61 120.2 697.52 119.63 694.35 118.69C691.17 117.75 688.92 116.9 687.58 116.16C686.24 115.42 684.4 114.32 682.07 112.88C679.74 111.44 678.05 109.95 677.01 108.41C675.97 106.87 675 104.94 674.11 102.6C673.22 100.27 672.77 97.76 672.77 95.08C672.77 88.53 675.7 82.92 681.55 78.25C687.41 73.59 695.64 71.25 706.27 71.25C719.57 71.25 730.09 75.62 737.84 84.35C740.92 88.12 743.05 92.44 744.24 97.3H719.67C719.07 95.71 718.38 94.47 717.59 93.58C715.31 91.1 712.03 89.86 707.76 89.86C701.8 89.86 698.83 91.6 698.83 95.07C698.83 96.76 699.82 98.05 701.81 98.94C703.8 99.83 706.82 100.68 710.89 101.47C721.11 103.85 728.01 105.94 731.59 107.72C740.52 112.09 744.99 118.79 744.99 127.82C744.99 134.97 741.84 140.97 735.53 145.84C729.22 150.7 720.22 153.14 708.5 153.14C694.11 153.14 683.14 148.58 675.59 139.44C672.21 135.39 670.03 130.78 669.04 125.61ZM752.419 112.21C752.419 123.43 756.589 133.06 764.929 141.1C773.269 149.14 783.489 153.16 795.599 153.16C807.709 153.16 817.929 149.14 826.269 141.1C834.609 133.06 838.779 123.43 838.779 112.21C838.779 100.99 834.609 91.36 826.269 83.32C817.939 75.28 807.709 71.26 795.599 71.26C783.489 71.26 773.269 75.28 764.929 83.32C756.589 91.36 752.419 100.99 752.419 112.21ZM778.479 112.21C778.479 106.36 780.089 101.66 783.319 98.14C786.539 94.62 790.639 92.85 795.599 92.85C800.569 92.85 804.659 94.62 807.889 98.14C811.109 101.66 812.729 106.35 812.729 112.21C812.729 118.07 811.109 122.76 807.889 126.28C804.659 129.81 800.559 131.57 795.599 131.57C790.639 131.57 786.539 129.81 783.319 126.28C780.089 122.76 778.479 118.07 778.479 112.21ZM844.74 96.58V76.48H854.42V46.7H930.36V76.48H950.46V96.58H930.36V132.32H951.95V150.93H905.05V96.58H879.74V150.93H854.43V96.58H844.74ZM879.73 76.48H905.04V66.8H879.73V76.48Z" fill="url(#paint0_linear_473_450)"/>
</g>
<defs>
<linearGradient id="paint0_linear_473_450" x1="0.0517578" y1="-0.160034" x2="74.0395" y2="367.785" gradientUnits="userSpaceOnUse">
<stop stop-color="#3CAEE0"/>
<stop offset="1" stop-color="#C23DF5"/>
</linearGradient>
<clipPath id="clip0_473_450">
<rect width="952" height="192" fill="white"/>
</clipPath>
</defs>
</svg>
