<svg width="40" height="40" viewBox="0 0 40 40" fill="none" xmlns="http://www.w3.org/2000/svg">
<g id="Frame">
<g id="Group">
<path id="Vector" d="M15.782 28.0167C15.6253 28.0167 15.4736 27.9608 15.3545 27.859L11.0812 24.2203C11.0083 24.1583 10.9499 24.0812 10.9098 23.9944C10.8696 23.9076 10.8489 23.8131 10.8489 23.7174C10.8489 23.6218 10.8696 23.5273 10.9098 23.4405C10.9499 23.3537 11.0083 23.2766 11.0812 23.2146L15.3545 19.5759C15.4878 19.4624 15.6607 19.4064 15.8353 19.4204C16.0098 19.4343 16.1717 19.517 16.2853 19.6503C16.5215 19.9282 16.4883 20.3449 16.2105 20.5811L12.528 23.7173L16.2105 26.8533C16.3135 26.9409 16.3871 27.058 16.4214 27.1888C16.4557 27.3196 16.449 27.4577 16.4023 27.5846C16.3556 27.7115 16.271 27.8209 16.1601 27.8982C16.0491 27.9755 15.9172 28.0168 15.782 28.0167ZM24.2179 28.0167C24.0311 28.0167 23.8454 27.9378 23.7149 27.7841C23.6014 27.6508 23.5454 27.4779 23.5594 27.3033C23.5734 27.1287 23.6561 26.9669 23.7894 26.8533L27.4719 23.7173L23.7894 20.5811C23.6608 20.4662 23.5823 20.3056 23.5706 20.1336C23.5589 19.9616 23.6149 19.7918 23.7266 19.6606C23.8384 19.5293 23.9971 19.447 24.1688 19.4311C24.3404 19.4153 24.5115 19.4672 24.6454 19.5758L28.9187 23.2145C28.9915 23.2765 29.05 23.3536 29.0901 23.4404C29.1302 23.5272 29.151 23.6217 29.151 23.7174C29.151 23.813 29.1302 23.9075 29.0901 23.9943C29.05 24.0811 28.9915 24.1582 28.9187 24.2202L24.6454 27.8589C24.5263 27.9607 24.3747 28.0167 24.218 28.0167H24.2179ZM18.4872 30.7459C18.3888 30.7461 18.2917 30.7242 18.2028 30.682C18.114 30.6397 18.0357 30.5782 17.9737 30.5019C17.9117 30.4255 17.8675 30.3363 17.8444 30.2407C17.8212 30.1451 17.8198 30.0455 17.84 29.9492L20.5032 17.3043C20.5394 17.1329 20.6421 16.9829 20.7888 16.8873C20.9355 16.7916 21.1143 16.7582 21.2856 16.7943C21.457 16.8304 21.6071 16.9331 21.7027 17.0799C21.7984 17.2266 21.8318 17.4053 21.7957 17.5767L19.1325 30.2215C19.1013 30.3696 19.0202 30.5025 18.9027 30.598C18.7853 30.6935 18.6386 30.7457 18.4872 30.7459Z" fill="white"/>
<path id="Vector_2" d="M35.566 37.6349H4.43396C1.98925 37.6349 0 35.646 0 33.2009V6.77771C0 4.333 1.98925 2.34375 4.43396 2.34375H35.566C38.0108 2.34375 40 4.333 40 6.77771V33.2009C40 35.646 38.0108 37.6349 35.566 37.6349ZM4.43396 3.6645C2.71745 3.6645 1.32075 5.0612 1.32075 6.77771V33.2009C1.32075 34.9174 2.71745 36.3141 4.43396 36.3141H35.566C37.2825 36.3141 38.6792 34.9174 38.6792 33.2009V6.77771C38.6792 5.0612 37.2825 3.6645 35.566 3.6645H4.43396Z" fill="white"/>
<path id="Vector_3" d="M39.3397 12.9183H0.660417C0.487207 12.9154 0.322082 12.8445 0.200626 12.721C0.0791702 12.5974 0.0111084 12.4311 0.0111084 12.2579C0.0111084 12.0847 0.0791702 11.9184 0.200626 11.7949C0.322082 11.6713 0.487207 11.6005 0.660417 11.5975H39.3397C39.5129 11.6005 39.678 11.6713 39.7995 11.7949C39.9209 11.9184 39.989 12.0847 39.989 12.2579C39.989 12.4311 39.9209 12.5974 39.7995 12.721C39.678 12.8445 39.5129 12.9154 39.3397 12.9183ZM11.2832 9.75829C10.1313 9.75829 9.19334 8.82036 9.19334 7.66838C9.19334 6.51612 10.1313 5.57857 11.2832 5.57857C12.4355 5.57857 13.3731 6.51612 13.3731 7.66838C13.3731 8.82036 12.4355 9.75829 11.2832 9.75829ZM11.2832 6.89933C10.8594 6.89933 10.5141 7.24423 10.5141 7.66838C10.5141 8.09253 10.8594 8.43753 11.2832 8.43753C11.7074 8.43753 12.0523 8.09263 12.0523 7.66838C12.0523 7.24414 11.7074 6.89933 11.2832 6.89933ZM4.8623 9.73801C3.70985 9.73801 2.7724 8.80046 2.7724 7.64819C2.7724 6.49584 3.70985 5.55829 4.86221 5.55829C6.01457 5.55829 6.95202 6.49584 6.95202 7.64819C6.95202 8.80046 6.01466 9.73801 4.8623 9.73801ZM4.8623 6.87904C4.43844 6.87904 4.09315 7.22433 4.09315 7.64819C4.09315 8.07235 4.43844 8.41725 4.86221 8.41725C5.28636 8.41725 5.63127 8.07235 5.63127 7.64819C5.63127 7.22433 5.28646 6.87904 4.8623 6.87904ZM17.7042 9.77819C16.5523 9.77819 15.6148 8.84065 15.6148 7.68829C15.6148 6.5364 16.5522 5.59885 17.7042 5.59885C18.8566 5.59885 19.794 6.53631 19.794 7.68829C19.794 8.84065 18.8566 9.77819 17.7042 9.77819ZM17.7042 6.91923C17.2804 6.91923 16.9355 7.26414 16.9355 7.68829C16.9355 8.11244 17.2804 8.45744 17.7042 8.45744C18.1283 8.45744 18.4732 8.11244 18.4732 7.68829C18.4732 7.26414 18.1283 6.91923 17.7042 6.91923Z" fill="white"/>
</g>
</g>
</svg>
