<svg width="40" height="40" viewBox="0 0 40 40" fill="none" xmlns="http://www.w3.org/2000/svg">
<g id="Frame">
<g id="Group">
<path id="Vector" d="M35.1953 4.31251H34.709V2.20251C34.709 2.05747 34.6514 1.91837 34.5489 1.81582C34.4463 1.71326 34.3072 1.65564 34.1622 1.65564H21.6978C21.5527 1.65564 21.4136 1.71326 21.3111 1.81582C21.2085 1.91837 21.1509 2.05747 21.1509 2.20251V4.31251H4.80466C3.98431 4.31351 3.19782 4.63972 2.61759 5.21965C2.03737 5.79958 1.71076 6.58591 1.70935 7.40626V27.1666C1.71026 27.9873 2.03665 28.7741 2.61693 29.3544C3.19721 29.9347 3.98399 30.2612 4.80466 30.2622H16.684L15.9731 33.5066H14.4084C14.087 33.507 13.7789 33.6349 13.5516 33.8622C13.3244 34.0895 13.1966 34.3977 13.1962 34.7191V37.1322C13.1966 37.4536 13.3244 37.7617 13.5516 37.989C13.7789 38.2162 14.087 38.3441 14.4084 38.3444H25.5915C25.9129 38.3441 26.2211 38.2162 26.4483 37.989C26.6756 37.7617 26.8034 37.4536 26.8037 37.1322V34.7188C26.8034 34.3973 26.6756 34.0892 26.4483 33.8619C26.2211 33.6346 25.913 33.5067 25.5915 33.5063H24.0269L23.3159 30.2622H35.1953C36.016 30.2612 36.8027 29.9347 37.383 29.3544C37.9633 28.7741 38.2897 27.9873 38.2906 27.1666V7.40626C38.2892 6.58591 37.9626 5.79958 37.3824 5.21965C36.8021 4.63972 36.0156 4.31351 35.1953 4.31251ZM25.71 34.7188V37.1319C25.71 37.1633 25.6975 37.1934 25.6753 37.2156C25.6531 37.2379 25.6229 37.2503 25.5915 37.2503H14.4084C14.377 37.2503 14.3469 37.2379 14.3247 37.2156C14.3025 37.1934 14.29 37.1633 14.29 37.1319V34.7188C14.29 34.6873 14.3024 34.6572 14.3246 34.6349C14.3468 34.6126 14.377 34.6001 14.4084 34.6H25.5915C25.623 34.6001 25.6531 34.6126 25.6753 34.6349C25.6975 34.6572 25.71 34.6873 25.71 34.7188ZM17.0937 33.5066L17.805 30.2622H22.1959L22.9062 33.5066H17.0937ZM22.2447 2.75001H33.6153V10.8438H22.2447V2.75001ZM4.80466 5.40626H21.1509V11.3888C21.151 11.5338 21.2086 11.6728 21.3112 11.7754C21.4137 11.8779 21.5528 11.9356 21.6978 11.9356H34.1622C34.3072 11.9356 34.4462 11.8779 34.5488 11.7754C34.6513 11.6728 34.709 11.5338 34.709 11.3888V5.40626H35.1953C35.7257 5.40692 36.2341 5.6178 36.6093 5.99269C36.9845 6.36757 37.1958 6.87589 37.1968 7.40626V24.8388H2.8031V7.40626C2.80418 6.87589 3.01545 6.36757 3.39063 5.99269C3.7658 5.6178 4.27429 5.40692 4.80466 5.40626ZM35.1953 29.1697H4.80466C4.27424 29.1686 3.76587 28.9573 3.39097 28.5821C3.01608 28.2068 2.80524 27.6983 2.80466 27.1678V25.9325H37.1968V27.1666C37.1963 27.6973 36.9852 28.2061 36.61 28.5814C36.2348 28.9567 35.726 29.1678 35.1953 29.1685V29.1697Z" fill="white"/>
<path id="Vector_2" d="M5.04745 18.3222C5.16564 18.5822 5.35623 18.8027 5.59641 18.9573C5.83659 19.1118 6.11621 19.1939 6.40182 19.1938C6.49877 19.193 6.59539 19.1825 6.69026 19.1625L8.24807 22.6C8.33165 22.786 8.45112 22.9536 8.59964 23.0933C8.74815 23.2329 8.92278 23.3419 9.11351 23.4139C9.30424 23.4859 9.50731 23.5195 9.71107 23.5129C9.91483 23.5062 10.1153 23.4594 10.3009 23.375L10.5643 23.2557C10.7499 23.1716 10.9171 23.0518 11.0564 22.9031C11.1957 22.7544 11.3043 22.5797 11.3761 22.389C11.4478 22.1983 11.4813 21.9954 11.4747 21.7917C11.468 21.5881 11.4212 21.3878 11.3371 21.2022L9.79589 17.7997L10.2403 17.5985L16.4928 17.5047C16.736 17.501 16.9744 17.4367 17.1866 17.3179C17.3988 17.199 17.5781 17.0291 17.7083 16.8237C17.8385 16.6183 17.9155 16.3836 17.9325 16.141C17.9494 15.8984 17.9057 15.6553 17.8053 15.4338L17.204 14.1063C17.6231 13.7821 17.9206 13.326 18.0482 12.8118C18.1759 12.2976 18.1263 11.7553 17.9075 11.2728C17.6887 10.7902 17.3134 10.3956 16.8425 10.1529C16.3715 9.9101 15.8324 9.83335 15.3124 9.93504L14.7106 8.6066C14.6101 8.38498 14.4561 8.19185 14.2623 8.04462C14.0686 7.89739 13.8413 7.80069 13.6008 7.76324C13.3604 7.72578 13.1144 7.74876 12.8851 7.83009C12.6557 7.91141 12.4503 8.04854 12.2871 8.2291L8.09713 12.8697L4.86932 14.3329C4.69169 14.4132 4.53164 14.5278 4.39832 14.6701C4.26501 14.8123 4.16104 14.9795 4.09238 15.1619C4.02371 15.3444 3.99168 15.5386 3.99813 15.7335C4.00457 15.9283 4.04937 16.12 4.12995 16.2975L5.04745 18.3222ZM10.3524 22.0022C10.3314 22.0585 10.2994 22.1101 10.2583 22.154C10.2172 22.1978 10.1679 22.2331 10.1131 22.2578L9.84963 22.3772C9.73908 22.4271 9.61328 22.4311 9.49977 22.3884C9.38626 22.3457 9.2943 22.2598 9.24401 22.1494L7.70276 18.75L8.79963 18.2528L10.3409 21.6535C10.3656 21.708 10.3794 21.7669 10.3814 21.8267C10.3834 21.8865 10.3735 21.9462 10.3524 22.0022ZM16.2056 11.0647C16.3944 11.1358 16.5634 11.2511 16.6985 11.4009C16.8337 11.5508 16.9309 11.7308 16.9821 11.9259C17.0333 12.1211 17.0371 12.3257 16.993 12.5225C16.9489 12.7194 16.8583 12.9029 16.7287 13.0575L16.3978 12.3269L15.789 10.9832C15.9315 10.9866 16.0723 11.014 16.2056 11.0644V11.0647ZM13.1003 8.96254C13.1417 8.91675 13.1939 8.88198 13.2521 8.86137C13.3103 8.84076 13.3728 8.83495 13.4338 8.84447C13.4948 8.85398 13.5525 8.87853 13.6017 8.91588C13.6509 8.95324 13.69 9.00224 13.7156 9.05848L14.5156 10.8235L15.6371 13.2985L16.8096 15.8857C16.8352 15.9419 16.8463 16.0037 16.842 16.0653C16.8377 16.127 16.8181 16.1866 16.785 16.2387C16.752 16.2909 16.7064 16.3341 16.6525 16.3642C16.5986 16.3944 16.538 16.4107 16.4762 16.4116L10.4687 16.5L9.07307 13.4204L13.1003 8.96254ZM5.1162 15.5472C5.13416 15.4991 5.16147 15.455 5.19654 15.4174C5.23162 15.3799 5.27377 15.3497 5.32057 15.3285L8.1562 14.0447L9.39463 16.7813L8.84651 17.0313L8.08026 17.3785L6.56245 18.065C6.46804 18.1079 6.36049 18.1115 6.26345 18.075C6.1664 18.0386 6.08781 17.9651 6.04495 17.8707L5.12495 15.846C5.10383 15.7992 5.09219 15.7488 5.09069 15.6975C5.08919 15.6462 5.09786 15.5951 5.1162 15.5472ZM22.1849 15.1647V22.6841C22.185 22.8291 22.2427 22.9682 22.3452 23.0707C22.4478 23.1732 22.5868 23.2309 22.7318 23.231H34.164C34.309 23.2309 34.4481 23.1732 34.5506 23.0707C34.6532 22.9682 34.7108 22.8291 34.7109 22.6841V15.1585C34.7109 15.1482 34.7084 15.1385 34.7078 15.1272C34.707 15.102 34.7045 15.0768 34.7003 15.0519C34.6968 15.0353 34.6909 15.0207 34.6862 15.0038C34.6816 14.9854 34.676 14.9672 34.6693 14.9494C34.6602 14.9291 34.6497 14.9094 34.6381 14.8903C34.6318 14.8791 34.6278 14.8672 34.6206 14.8563L34.6184 14.8538C34.6038 14.8329 34.5877 14.8132 34.5703 14.7947C34.5459 14.7673 34.5189 14.7424 34.4896 14.7203C34.4824 14.715 34.4765 14.7085 34.469 14.7035C34.4516 14.6926 34.4335 14.6828 34.4149 14.6741C34.4015 14.6672 34.389 14.6585 34.3749 14.6528C34.3565 14.6458 34.3376 14.6398 34.3184 14.635C34.296 14.6283 34.2733 14.6229 34.2503 14.6191C34.2226 14.6139 34.1946 14.6111 34.1665 14.6107H22.729C22.7015 14.6112 22.6742 14.6139 22.6471 14.6188C22.6195 14.6233 22.5922 14.63 22.5656 14.6388C22.5506 14.6435 22.5343 14.6466 22.5209 14.6525C22.5074 14.6585 22.4896 14.6694 22.474 14.6775C22.4579 14.6854 22.4421 14.694 22.4268 14.7035C22.414 14.7119 22.4034 14.7228 22.3912 14.7322C22.3689 14.7506 22.348 14.7707 22.3287 14.7922C22.3106 14.8118 22.2938 14.8327 22.2787 14.8547L22.2765 14.8572C22.2693 14.8682 22.2653 14.88 22.2587 14.8913C22.247 14.9103 22.2366 14.93 22.2274 14.9503C22.2208 14.9681 22.2151 14.9863 22.2106 15.0047C22.2059 15.021 22.1996 15.036 22.1965 15.0528C22.1922 15.0777 22.1896 15.1029 22.189 15.1282C22.189 15.1382 22.1859 15.1478 22.1859 15.1594V15.1657L22.1849 15.1647ZM23.2787 22.1372V16.1732L28.1471 19.3782C28.2365 19.4369 28.341 19.4682 28.4479 19.4682C28.5548 19.4682 28.6594 19.4369 28.7487 19.3782L33.6171 16.1732V22.1372H23.2787ZM24.5574 15.7053H32.3387L28.4481 18.2678L24.5574 15.7053ZM25.6593 9.87691C25.7424 9.92471 25.8365 9.94986 25.9323 9.94986C26.0281 9.94986 26.1222 9.92471 26.2053 9.87691L30.759 7.26848C30.8427 7.22067 30.9122 7.1516 30.9605 7.06826C31.0089 6.98493 31.0344 6.89029 31.0344 6.79394C31.0344 6.6976 31.0089 6.60296 30.9605 6.51963C30.9122 6.43629 30.8427 6.36722 30.759 6.31941L26.2053 3.71316C26.1221 3.6655 26.0279 3.64053 25.9321 3.64075C25.8363 3.64097 25.7422 3.66638 25.6593 3.71444C25.5764 3.76249 25.5076 3.83149 25.4598 3.91453C25.4119 3.99756 25.3868 4.09171 25.3868 4.18754V9.40379C25.3868 9.49961 25.412 9.59375 25.4598 9.67679C25.5076 9.75982 25.5764 9.82884 25.6593 9.87691ZM26.4806 5.13098L29.3868 6.79566L26.4806 8.46035V5.13098Z" fill="white"/>
</g>
</g>
</svg>
