<svg width="77" height="46" viewBox="0 0 77 46" fill="none" xmlns="http://www.w3.org/2000/svg">
<path id="YOUR LIFE" d="M18.4139 45.6948C14.9703 45.6948 11.9225 44.9242 9.2705 43.3831C6.65809 41.842 4.59983 39.7178 3.09572 37.0104C1.63119 34.2614 0.898926 31.1375 0.898926 27.6388V0.898376H10.2798V28.2011C10.2798 29.9505 10.6361 31.4708 11.3486 32.762C12.061 34.0532 13.0308 35.0528 14.2578 35.7609C15.5244 36.4273 16.9098 36.7605 18.4139 36.7605C60.2916 36.7605 61.6769 36.4273 62.8644 35.7609C64.0518 35.0528 64.982 34.074 65.6549 32.8244C66.3674 31.5332 66.7236 30.0129 66.7236 28.2636V0.898376H76.1045V27.7013C76.1045 31.2 75.3723 34.3031 73.9077 37.0104C72.4432 39.7178 70.8006 42.5918 68.1881 44.1329C65.5757 45.674 62.1519 45.6948 18.4139 45.6948Z" fill="url(#paint0_linear_15_529)"/>
<defs>
<linearGradient id="paint0_linear_15_529" x1="30.4056" y1="0.656319" x2="62.373" y2="41.5606" gradientUnits="userSpaceOnUse">
<stop stop-color="#4BA1E2"/>
<stop offset="0.510417" stop-color="#6D84E8"/>
<stop offset="1" stop-color="#8E68ED"/>
</linearGradient>
</defs>
</svg>
